<?xml version="1.0" encoding="UTF-8" standalone="no"?>
<!DOCTYPE svg PUBLIC "-//W3C//DTD SVG 1.1//EN"
 "http://www.w3.org/Graphics/SVG/1.1/DTD/svg11.dtd">
<!-- Generated by graphviz version 2.40.1 (20161225.0304)
 -->
<!-- Title: boot0 Pages: 1 -->
<svg width="238pt" height="598pt"
 viewBox="0.00 0.00 237.98 598.40" xmlns="http://www.w3.org/2000/svg" xmlns:xlink="http://www.w3.org/1999/xlink">
<g id="graph0" class="graph" transform="scale(1 1) rotate(0) translate(4 594.4)">
<title>boot0</title>
<polygon fill="#ffffff" stroke="transparent" points="-4,4 -4,-594.4 233.9802,-594.4 233.9802,4 -4,4"/>
<g id="clust1" class="cluster">
<title>cluster_coldboot_minor</title>
<polygon fill="none" stroke="#000000" points="8,-64 8,-546.4 194,-546.4 194,-64 8,-64"/>
<text text-anchor="middle" x="101" y="-529.8" font-family="Times,serif" font-size="14.00" fill="#000000">coldboot</text>
</g>
<g id="clust2" class="cluster">
<title>cluster_coldboot_minor</title>
<polygon fill="none" stroke="#000000" points="16,-292.8 16,-513.6 174,-513.6 174,-292.8 16,-292.8"/>
<text text-anchor="middle" x="95" y="-497" font-family="Times,serif" font-size="14.00" fill="#000000">minor</text>
</g>
<g id="clust3" class="cluster">
<title>cluster_coldboot</title>
<polygon fill="none" stroke="#000000" points="30,-136 30,-284.8 186,-284.8 186,-136 30,-136"/>
<text text-anchor="middle" x="108" y="-268.2" font-family="Times,serif" font-size="14.00" fill="#000000">major</text>
</g>
<!-- boot -->
<g id="node1" class="node">
<title>boot</title>
<polygon fill="none" stroke="#000000" points="86,-590.4 46.2222,-572.4 86,-554.4 125.7778,-572.4 86,-590.4"/>
<polyline fill="none" stroke="#000000" points="57.155,-577.3472 57.155,-567.4528 "/>
<polyline fill="none" stroke="#000000" points="75.0673,-559.3472 96.9327,-559.3472 "/>
<polyline fill="none" stroke="#000000" points="114.845,-567.4528 114.845,-577.3472 "/>
<polyline fill="none" stroke="#000000" points="96.9327,-585.4528 75.0673,-585.4528 "/>
<text text-anchor="middle" x="86" y="-568.2" font-family="Times,serif" font-size="14.00" fill="#000000">boot</text>
</g>
<!-- minor_start -->
<g id="node2" class="node">
<title>minor_start</title>
<ellipse fill="none" stroke="#000000" cx="86" cy="-462.8" rx="55.614" ry="18"/>
<text text-anchor="middle" x="86" y="-458.6" font-family="Times,serif" font-size="14.00" fill="#000000">minor_start</text>
</g>
<!-- boot&#45;&gt;minor_start -->
<g id="edge1" class="edge">
<title>boot&#45;&gt;minor_start</title>
<path fill="none" stroke="#000000" d="M86,-554.3018C86,-537.0883 86,-510.9333 86,-490.9888"/>
<polygon fill="#000000" stroke="#000000" points="89.5001,-490.9251 86,-480.9251 82.5001,-490.9251 89.5001,-490.9251"/>
</g>
<!-- minor_active -->
<g id="node3" class="node">
<title>minor_active</title>
<ellipse fill="#d3d3d3" stroke="#000000" cx="86" cy="-390.8" rx="61.977" ry="18"/>
<text text-anchor="middle" x="86" y="-386.6" font-family="Times,serif" font-size="14.00" fill="#000000">minor_active</text>
</g>
<!-- minor_start&#45;&gt;minor_active -->
<g id="edge2" class="edge">
<title>minor_start&#45;&gt;minor_active</title>
<path fill="none" stroke="#000000" d="M80.0476,-444.6314C79.2972,-436.931 79.0763,-427.7743 79.3849,-419.2166"/>
<polygon fill="#000000" stroke="#000000" points="82.8792,-419.4161 80.024,-409.2133 75.8935,-418.9697 82.8792,-419.4161"/>
</g>
<!-- minor_active&#45;&gt;minor_start -->
<g id="edge5" class="edge">
<title>minor_active&#45;&gt;minor_start</title>
<path fill="none" stroke="#000000" d="M91.976,-409.2133C92.7071,-416.8593 92.9203,-425.9084 92.6155,-434.3726"/>
<polygon fill="#000000" stroke="#000000" points="89.1048,-434.4264 91.9524,-444.6314 96.0902,-434.878 89.1048,-434.4264"/>
</g>
<!-- minor_active&#45;&gt;minor_active -->
<g id="edge3" class="edge">
<title>minor_active&#45;&gt;minor_active</title>
<path fill="none" stroke="#000000" d="M128.3844,-404.0025C148.4056,-405.5368 165.9885,-401.1359 165.9885,-390.8 165.9885,-382.2406 153.9303,-377.7513 138.4148,-377.3323"/>
<polygon fill="#000000" stroke="#000000" points="138.2884,-373.8344 128.3844,-377.5975 138.4734,-380.8319 138.2884,-373.8344"/>
</g>
<!-- minor_stop -->
<g id="node4" class="node">
<title>minor_stop</title>
<ellipse fill="#d3d3d3" stroke="#000000" cx="91" cy="-318.8" rx="55.0575" ry="18"/>
<text text-anchor="middle" x="91" y="-314.6" font-family="Times,serif" font-size="14.00" fill="#000000">minor_stop</text>
</g>
<!-- minor_active&#45;&gt;minor_stop -->
<g id="edge4" class="edge">
<title>minor_active&#45;&gt;minor_stop</title>
<path fill="none" stroke="#000000" d="M87.2617,-372.6314C87.7965,-364.931 88.4323,-355.7743 89.0266,-347.2166"/>
<polygon fill="#000000" stroke="#000000" points="92.52,-347.4317 89.7213,-337.2133 85.5368,-346.9467 92.52,-347.4317"/>
</g>
<!-- warmboot -->
<g id="node8" class="node">
<title>warmboot</title>
<polygon fill="none" stroke="#000000" points="159,-36 88.0396,-18 159,0 229.9604,-18 159,-36"/>
<polyline fill="none" stroke="#000000" points="99.6712,-20.9505 99.6712,-15.0495 "/>
<polyline fill="none" stroke="#000000" points="147.3684,-2.9505 170.6316,-2.9505 "/>
<polyline fill="none" stroke="#000000" points="218.3288,-15.0495 218.3288,-20.9505 "/>
<polyline fill="none" stroke="#000000" points="170.6316,-33.0495 147.3684,-33.0495 "/>
<text text-anchor="middle" x="159" y="-13.8" font-family="Times,serif" font-size="14.00" fill="#000000">warmboot</text>
</g>
<!-- minor_active&#45;&gt;warmboot -->
<g id="edge11" class="edge">
<title>minor_active&#45;&gt;warmboot</title>
<path fill="none" stroke="#000000" d="M112.833,-374.4806C150.3667,-349.3641 214,-297.4292 214,-234 214,-234 214,-234 214,-162 214,-117.8678 216.499,-104.0679 198,-64 194.0254,-55.3913 187.9822,-47.1167 181.8314,-40.0172"/>
<polygon fill="#000000" stroke="#000000" points="184.0351,-37.2445 174.679,-32.2731 178.8928,-41.9939 184.0351,-37.2445"/>
</g>
<!-- major_start -->
<g id="node5" class="node">
<title>major_start</title>
<ellipse fill="#d3d3d3" stroke="#000000" cx="96" cy="-234" rx="55.0304" ry="18"/>
<text text-anchor="middle" x="96" y="-229.8" font-family="Times,serif" font-size="14.00" fill="#000000">major_start</text>
</g>
<!-- minor_stop&#45;&gt;major_start -->
<g id="edge10" class="edge">
<title>minor_stop&#45;&gt;major_start</title>
<path fill="none" stroke="#000000" d="M92.0849,-300.3997C92.7446,-289.2112 93.6003,-274.6983 94.3434,-262.0954"/>
<polygon fill="#000000" stroke="#000000" points="97.8396,-262.2618 94.9344,-252.0731 90.8517,-261.8497 97.8396,-262.2618"/>
</g>
<!-- major_active -->
<g id="node6" class="node">
<title>major_active</title>
<ellipse fill="#d3d3d3" stroke="#000000" cx="99" cy="-162" rx="61.3935" ry="18"/>
<text text-anchor="middle" x="99" y="-157.8" font-family="Times,serif" font-size="14.00" fill="#000000">major_active</text>
</g>
<!-- major_start&#45;&gt;major_active -->
<g id="edge6" class="edge">
<title>major_start&#45;&gt;major_active</title>
<path fill="none" stroke="#000000" d="M96.757,-215.8314C97.0779,-208.131 97.4594,-198.9743 97.816,-190.4166"/>
<polygon fill="#000000" stroke="#000000" points="101.3133,-190.5503 98.2328,-180.4133 94.3194,-190.2589 101.3133,-190.5503"/>
</g>
<!-- major_active&#45;&gt;minor_start -->
<g id="edge8" class="edge">
<title>major_active&#45;&gt;minor_start</title>
<path fill="none" stroke="#000000" d="M125.5233,-178.4882C138.1853,-187.85 152.2374,-200.7479 160,-216 227.6524,-348.9251 195.381,-372.5948 175,-408.8 165.9584,-424.8617 149.9961,-436.6962 134.0621,-445.1224"/>
<polygon fill="#000000" stroke="#000000" points="132.1734,-442.1504 124.7362,-449.6961 135.2557,-448.4352 132.1734,-442.1504"/>
</g>
<!-- major_active&#45;&gt;major_active -->
<g id="edge7" class="edge">
<title>major_active&#45;&gt;major_active</title>
<path fill="none" stroke="#000000" d="M141.0973,-175.2025C160.9829,-176.7368 178.4467,-172.3359 178.4467,-162 178.4467,-153.5213 166.6951,-149.0364 151.495,-148.5453"/>
<polygon fill="#000000" stroke="#000000" points="151.0095,-145.0559 141.0973,-148.7975 151.1793,-152.0539 151.0095,-145.0559"/>
</g>
<!-- major_dominant -->
<g id="node7" class="node">
<title>major_dominant</title>
<ellipse fill="#d3d3d3" stroke="#000000" cx="105" cy="-90" rx="74.7419" ry="18"/>
<text text-anchor="middle" x="105" y="-85.8" font-family="Times,serif" font-size="14.00" fill="#000000">major_dominant</text>
</g>
<!-- major_active&#45;&gt;major_dominant -->
<g id="edge9" class="edge">
<title>major_active&#45;&gt;major_dominant</title>
<path fill="none" stroke="#000000" d="M100.5141,-143.8314C101.1558,-136.131 101.9188,-126.9743 102.6319,-118.4166"/>
<polygon fill="#000000" stroke="#000000" points="106.1229,-118.6694 103.4656,-108.4133 99.1471,-118.088 106.1229,-118.6694"/>
</g>
<!-- major_dominant&#45;&gt;warmboot -->
<g id="edge12" class="edge">
<title>major_dominant&#45;&gt;warmboot</title>
<path fill="none" stroke="#000000" d="M118.3483,-72.2022C125.3756,-62.8325 134.0772,-51.2305 141.6244,-41.1675"/>
<polygon fill="#000000" stroke="#000000" points="144.4304,-43.2594 147.6304,-33.1594 138.8304,-39.0594 144.4304,-43.2594"/>
</g>
</g>
</svg>
