<?xml version="1.0" encoding="UTF-8" standalone="no"?>
<!DOCTYPE svg PUBLIC "-//W3C//DTD SVG 1.1//EN"
 "http://www.w3.org/Graphics/SVG/1.1/DTD/svg11.dtd">
<!-- Generated by graphviz version 2.40.1 (20161225.0304)
 -->
<!-- Title: boot0 Pages: 1 -->
<svg width="312pt" height="632pt"
 viewBox="0.00 0.00 312.45 631.85" xmlns="http://www.w3.org/2000/svg" xmlns:xlink="http://www.w3.org/1999/xlink">
<g id="graph0" class="graph" transform="scale(1 1) rotate(0) translate(4 627.8512)">
<title>boot0</title>
<polygon fill="#ffffff" stroke="transparent" points="-4,4 -4,-627.8512 308.4512,-627.8512 308.4512,4 -4,4"/>
<g id="clust1" class="cluster">
<title>cluster_coldboot_minor</title>
<polygon fill="none" stroke="#000000" points="8,-64 8,-579.8512 194,-579.8512 194,-64 8,-64"/>
<text text-anchor="middle" x="101" y="-563.2512" font-family="Times,serif" font-size="14.00" fill="#000000">coldboot</text>
</g>
<g id="clust2" class="cluster">
<title>cluster_coldboot_minor</title>
<polygon fill="none" stroke="#000000" points="28,-292.8 28,-547.0512 186,-547.0512 186,-292.8 28,-292.8"/>
<text text-anchor="middle" x="107" y="-530.4512" font-family="Times,serif" font-size="14.00" fill="#000000">minor</text>
</g>
<g id="clust3" class="cluster">
<title>cluster_coldboot</title>
<polygon fill="none" stroke="#000000" points="18,-136 18,-284.8 174,-284.8 174,-136 18,-136"/>
<text text-anchor="middle" x="96" y="-268.2" font-family="Times,serif" font-size="14.00" fill="#000000">major</text>
</g>
<!-- boot -->
<g id="node1" class="node">
<title>boot</title>
<polygon fill="none" stroke="#000000" points="98,-623.8512 58.2222,-605.8512 98,-587.8512 137.7778,-605.8512 98,-623.8512"/>
<polyline fill="none" stroke="#000000" points="69.155,-610.7984 69.155,-600.904 "/>
<polyline fill="none" stroke="#000000" points="87.0673,-592.7984 108.9327,-592.7984 "/>
<polyline fill="none" stroke="#000000" points="126.845,-600.904 126.845,-610.7984 "/>
<polyline fill="none" stroke="#000000" points="108.9327,-618.904 87.0673,-618.904 "/>
<text text-anchor="middle" x="98" y="-601.6512" font-family="Times,serif" font-size="14.00" fill="#000000">boot</text>
</g>
<!-- minor_start -->
<g id="node2" class="node">
<title>minor_start</title>
<ellipse fill="none" stroke="#000000" cx="98" cy="-496.2512" rx="55.614" ry="18"/>
<text text-anchor="middle" x="98" y="-492.0512" font-family="Times,serif" font-size="14.00" fill="#000000">minor_start</text>
</g>
<!-- boot&#45;&gt;minor_start -->
<g id="edge1" class="edge">
<title>boot&#45;&gt;minor_start</title>
<path fill="none" stroke="#000000" d="M98,-587.753C98,-570.5395 98,-544.3846 98,-524.44"/>
<polygon fill="#000000" stroke="#000000" points="101.5001,-524.3763 98,-514.3763 94.5001,-524.3763 101.5001,-524.3763"/>
</g>
<!-- minor_active -->
<g id="node3" class="node">
<title>minor_active</title>
<ellipse fill="none" stroke="#000000" cx="98" cy="-390.8" rx="61.977" ry="18"/>
<text text-anchor="middle" x="98" y="-386.6" font-family="Times,serif" font-size="14.00" fill="#000000">minor_active</text>
</g>
<!-- minor_start&#45;&gt;minor_active -->
<g id="edge2" class="edge">
<title>minor_start&#45;&gt;minor_active</title>
<path fill="none" stroke="#000000" d="M92.7332,-477.883C91.0663,-461.6279 90.8044,-437.6562 91.9476,-418.9766"/>
<polygon fill="#000000" stroke="#000000" points="95.4403,-419.2065 92.7549,-408.9577 88.4629,-418.6443 95.4403,-419.2065"/>
</g>
<!-- minor_active&#45;&gt;minor_start -->
<g id="edge5" class="edge">
<title>minor_active&#45;&gt;minor_start</title>
<path fill="none" stroke="#000000" d="M103.2451,-408.9577C104.9242,-425.1458 105.1982,-449.1068 104.0672,-467.8319"/>
<polygon fill="#000000" stroke="#000000" points="100.5717,-467.6367 103.2668,-477.883 107.5496,-468.1924 100.5717,-467.6367"/>
</g>
<!-- minor_active&#45;&gt;minor_active -->
<g id="edge3" class="edge">
<title>minor_active&#45;&gt;minor_active</title>
<path fill="none" stroke="#000000" d="M140.3844,-404.0025C160.4056,-405.5368 177.9885,-401.1359 177.9885,-390.8 177.9885,-382.2406 165.9303,-377.7513 150.4148,-377.3323"/>
<polygon fill="#000000" stroke="#000000" points="150.2884,-373.8344 140.3844,-377.5975 150.4734,-380.8319 150.2884,-373.8344"/>
</g>
<!-- minor_stop -->
<g id="node4" class="node">
<title>minor_stop</title>
<ellipse fill="none" stroke="#000000" cx="91" cy="-318.8" rx="55.0575" ry="18"/>
<text text-anchor="middle" x="91" y="-314.6" font-family="Times,serif" font-size="14.00" fill="#000000">minor_stop</text>
</g>
<!-- minor_active&#45;&gt;minor_stop -->
<g id="edge4" class="edge">
<title>minor_active&#45;&gt;minor_stop</title>
<path fill="none" stroke="#000000" d="M96.2336,-372.6314C95.485,-364.931 94.5947,-355.7743 93.7627,-347.2166"/>
<polygon fill="#000000" stroke="#000000" points="97.2415,-346.8276 92.7902,-337.2133 90.2744,-347.5051 97.2415,-346.8276"/>
</g>
<!-- warmboot -->
<g id="node8" class="node">
<title>warmboot</title>
<polygon fill="none" stroke="#000000" points="142,-36 71.0396,-18 142,0 212.9604,-18 142,-36"/>
<polyline fill="none" stroke="#000000" points="82.6712,-20.9505 82.6712,-15.0495 "/>
<polyline fill="none" stroke="#000000" points="130.3684,-2.9505 153.6316,-2.9505 "/>
<polyline fill="none" stroke="#000000" points="201.3288,-15.0495 201.3288,-20.9505 "/>
<polyline fill="none" stroke="#000000" points="153.6316,-33.0495 130.3684,-33.0495 "/>
<text text-anchor="middle" x="142" y="-13.8" font-family="Times,serif" font-size="14.00" fill="#000000">warmboot</text>
</g>
<!-- minor_active&#45;&gt;warmboot -->
<g id="edge11" class="edge">
<title>minor_active&#45;&gt;warmboot</title>
<path fill="none" stroke="#000000" d="M119.7851,-373.7884C131.3568,-363.9239 145.1769,-350.7229 155,-336.8 183.171,-296.8712 194,-282.8663 194,-234 194,-234 194,-234 194,-162 194,-118.0022 197.7866,-104.2422 180,-64 176.2076,-55.4197 170.3429,-47.1534 164.3466,-40.0528"/>
<polygon fill="#000000" stroke="#000000" points="166.6579,-37.3893 157.3634,-32.3037 161.4578,-42.0754 166.6579,-37.3893"/>
</g>
<!-- major_start -->
<g id="node5" class="node">
<title>major_start</title>
<ellipse fill="none" stroke="#000000" cx="91" cy="-234" rx="55.0304" ry="18"/>
<text text-anchor="middle" x="91" y="-229.8" font-family="Times,serif" font-size="14.00" fill="#000000">major_start</text>
</g>
<!-- minor_stop&#45;&gt;major_start -->
<g id="edge10" class="edge">
<title>minor_stop&#45;&gt;major_start</title>
<path fill="none" stroke="#000000" d="M91,-300.3997C91,-289.2112 91,-274.6983 91,-262.0954"/>
<polygon fill="#000000" stroke="#000000" points="94.5001,-262.0731 91,-252.0731 87.5001,-262.0731 94.5001,-262.0731"/>
</g>
<!-- major_active -->
<g id="node6" class="node">
<title>major_active</title>
<ellipse fill="none" stroke="#000000" cx="87" cy="-162" rx="61.3935" ry="18"/>
<text text-anchor="middle" x="87" y="-157.8" font-family="Times,serif" font-size="14.00" fill="#000000">major_active</text>
</g>
<!-- major_start&#45;&gt;major_active -->
<g id="edge6" class="edge">
<title>major_start&#45;&gt;major_active</title>
<path fill="none" stroke="#000000" d="M89.9906,-215.8314C89.5628,-208.131 89.0541,-198.9743 88.5787,-190.4166"/>
<polygon fill="#000000" stroke="#000000" points="92.0724,-190.2037 88.023,-180.4133 85.0831,-190.592 92.0724,-190.2037"/>
</g>
<!-- major_active&#45;&gt;minor_start -->
<g id="edge8" class="edge">
<title>major_active&#45;&gt;minor_start</title>
<path fill="none" stroke="#000000" d="M60.297,-178.2894C47.6803,-187.5987 33.8988,-200.5096 27,-216 -7.8615,-294.2768 -1.6546,-328.0442 27,-408.8 35.6549,-433.1915 54.3363,-455.7356 70.3644,-471.8236"/>
<polygon fill="#000000" stroke="#000000" points="68.3454,-474.7405 77.9641,-479.1826 73.2149,-469.7118 68.3454,-474.7405"/>
</g>
<!-- major_active&#45;&gt;major_active -->
<g id="edge7" class="edge">
<title>major_active&#45;&gt;major_active</title>
<path fill="none" stroke="#000000" d="M129.0973,-175.2025C148.9829,-176.7368 166.4467,-172.3359 166.4467,-162 166.4467,-153.5213 154.6951,-149.0364 139.495,-148.5453"/>
<polygon fill="#000000" stroke="#000000" points="139.0095,-145.0559 129.0973,-148.7975 139.1793,-152.0539 139.0095,-145.0559"/>
</g>
<!-- major_dominant -->
<g id="node7" class="node">
<title>major_dominant</title>
<ellipse fill="none" stroke="#000000" cx="91" cy="-90" rx="74.7419" ry="18"/>
<text text-anchor="middle" x="91" y="-85.8" font-family="Times,serif" font-size="14.00" fill="#000000">major_dominant</text>
</g>
<!-- major_active&#45;&gt;major_dominant -->
<g id="edge9" class="edge">
<title>major_active&#45;&gt;major_dominant</title>
<path fill="none" stroke="#000000" d="M88.0094,-143.8314C88.4372,-136.131 88.9459,-126.9743 89.4213,-118.4166"/>
<polygon fill="#000000" stroke="#000000" points="92.9169,-118.592 89.977,-108.4133 85.9276,-118.2037 92.9169,-118.592"/>
</g>
<!-- major_dominant&#45;&gt;warmboot -->
<g id="edge12" class="edge">
<title>major_dominant&#45;&gt;warmboot</title>
<path fill="none" stroke="#000000" d="M103.6067,-72.2022C110.086,-63.0551 118.0723,-51.7803 125.08,-41.887"/>
<polygon fill="#000000" stroke="#000000" points="127.9998,-43.8201 130.9239,-33.6368 122.2876,-39.774 127.9998,-43.8201"/>
</g>
<!-- invite -->
<g id="node9" class="node">
<title>invite</title>
<ellipse fill="none" stroke="#000000" stroke-dasharray="5,2" cx="253" cy="-496.2512" rx="51.4025" ry="51.4025"/>
<text text-anchor="middle" x="253" y="-500.4512" font-family="Times,serif" font-size="14.00" fill="#000000">warmboot</text>
<text text-anchor="middle" x="253" y="-483.6512" font-family="Times,serif" font-size="14.00" fill="#000000">invite</text>
</g>
<!-- invite&#45;&gt;minor_active -->
<g id="edge13" class="edge">
<title>invite&#45;&gt;minor_active</title>
<path fill="none" stroke="#000000" stroke-dasharray="5,2" d="M213.7276,-462.6344C206.023,-456.4845 197.8829,-450.2837 190,-444.8 173.0672,-433.0206 153.4545,-421.2698 136.6988,-411.7522"/>
<polygon fill="#000000" stroke="#000000" points="138.1519,-408.5541 127.7191,-406.7084 134.7238,-414.6573 138.1519,-408.5541"/>
</g>
</g>
</svg>
