<?xml version="1.0" encoding="UTF-8" standalone="no"?>
<!DOCTYPE svg PUBLIC "-//W3C//DTD SVG 1.1//EN"
 "http://www.w3.org/Graphics/SVG/1.1/DTD/svg11.dtd">
<!-- Generated by graphviz version 2.40.1 (20161225.0304)
 -->
<!-- Title: boot0 Pages: 1 -->
<svg width="358pt" height="598pt"
 viewBox="0.00 0.00 358.00 598.40" xmlns="http://www.w3.org/2000/svg" xmlns:xlink="http://www.w3.org/1999/xlink">
<g id="graph0" class="graph" transform="scale(1 1) rotate(0) translate(4 594.4)">
<title>boot0</title>
<polygon fill="#ffffff" stroke="transparent" points="-4,4 -4,-594.4 354,-594.4 354,4 -4,4"/>
<g id="clust1" class="cluster">
<title>cluster_coldboot_minor</title>
<polygon fill="none" stroke="#000000" points="8,-56 8,-546.4 342,-546.4 342,-56 8,-56"/>
<text text-anchor="middle" x="175" y="-529.8" font-family="Times,serif" font-size="14.00" fill="#000000">coldboot</text>
</g>
<g id="clust2" class="cluster">
<title>cluster_coldboot_minor</title>
<polygon fill="none" stroke="#000000" points="90,-220.8 90,-513.6 248,-513.6 248,-220.8 90,-220.8"/>
<text text-anchor="middle" x="169" y="-497" font-family="Times,serif" font-size="14.00" fill="#000000">minor</text>
</g>
<g id="clust3" class="cluster">
<title>cluster_coldboot</title>
<polygon fill="none" stroke="#000000" points="16,-64 16,-212.8 334,-212.8 334,-64 16,-64"/>
<text text-anchor="middle" x="175" y="-196.2" font-family="Times,serif" font-size="14.00" fill="#000000">major</text>
</g>
<!-- boot -->
<g id="node1" class="node">
<title>boot</title>
<polygon fill="none" stroke="#000000" points="160,-590.4 120.2222,-572.4 160,-554.4 199.7778,-572.4 160,-590.4"/>
<polyline fill="none" stroke="#000000" points="131.155,-577.3472 131.155,-567.4528 "/>
<polyline fill="none" stroke="#000000" points="149.0673,-559.3472 170.9327,-559.3472 "/>
<polyline fill="none" stroke="#000000" points="188.845,-567.4528 188.845,-577.3472 "/>
<polyline fill="none" stroke="#000000" points="170.9327,-585.4528 149.0673,-585.4528 "/>
<text text-anchor="middle" x="160" y="-568.2" font-family="Times,serif" font-size="14.00" fill="#000000">boot</text>
</g>
<!-- minor_start -->
<g id="node2" class="node">
<title>minor_start</title>
<ellipse fill="none" stroke="#000000" cx="160" cy="-462.8" rx="55.614" ry="18"/>
<text text-anchor="middle" x="160" y="-458.6" font-family="Times,serif" font-size="14.00" fill="#000000">minor_start</text>
</g>
<!-- boot&#45;&gt;minor_start -->
<g id="edge1" class="edge">
<title>boot&#45;&gt;minor_start</title>
<path fill="none" stroke="#000000" d="M160,-554.3018C160,-537.0883 160,-510.9333 160,-490.9888"/>
<polygon fill="#000000" stroke="#000000" points="163.5001,-490.9251 160,-480.9251 156.5001,-490.9251 163.5001,-490.9251"/>
</g>
<!-- minor_active -->
<g id="node3" class="node">
<title>minor_active</title>
<ellipse fill="#d3d3d3" stroke="#000000" cx="160" cy="-390.8" rx="61.977" ry="18"/>
<text text-anchor="middle" x="160" y="-386.6" font-family="Times,serif" font-size="14.00" fill="#000000">minor_active</text>
</g>
<!-- minor_start&#45;&gt;minor_active -->
<g id="edge2" class="edge">
<title>minor_start&#45;&gt;minor_active</title>
<path fill="none" stroke="#000000" d="M154.0476,-444.6314C153.2972,-436.931 153.0763,-427.7743 153.3849,-419.2166"/>
<polygon fill="#000000" stroke="#000000" points="156.8792,-419.4161 154.024,-409.2133 149.8935,-418.9697 156.8792,-419.4161"/>
</g>
<!-- minor_active&#45;&gt;minor_start -->
<g id="edge5" class="edge">
<title>minor_active&#45;&gt;minor_start</title>
<path fill="none" stroke="#000000" d="M165.976,-409.2133C166.7071,-416.8593 166.9203,-425.9084 166.6155,-434.3726"/>
<polygon fill="#000000" stroke="#000000" points="163.1048,-434.4264 165.9524,-444.6314 170.0902,-434.878 163.1048,-434.4264"/>
</g>
<!-- minor_active&#45;&gt;minor_active -->
<g id="edge3" class="edge">
<title>minor_active&#45;&gt;minor_active</title>
<path fill="none" stroke="#000000" d="M202.3844,-404.0025C222.4056,-405.5368 239.9885,-401.1359 239.9885,-390.8 239.9885,-382.2406 227.9303,-377.7513 212.4148,-377.3323"/>
<polygon fill="#000000" stroke="#000000" points="212.2884,-373.8344 202.3844,-377.5975 212.4734,-380.8319 212.2884,-373.8344"/>
</g>
<!-- minor_stop -->
<g id="node4" class="node">
<title>minor_stop</title>
<ellipse fill="#d3d3d3" stroke="#000000" cx="160" cy="-318.8" rx="55.0575" ry="18"/>
<text text-anchor="middle" x="160" y="-314.6" font-family="Times,serif" font-size="14.00" fill="#000000">minor_stop</text>
</g>
<!-- minor_active&#45;&gt;minor_stop -->
<g id="edge4" class="edge">
<title>minor_active&#45;&gt;minor_stop</title>
<path fill="none" stroke="#000000" d="M160,-372.6314C160,-364.931 160,-355.7743 160,-347.2166"/>
<polygon fill="#000000" stroke="#000000" points="163.5001,-347.2132 160,-337.2133 156.5001,-347.2133 163.5001,-347.2132"/>
</g>
<!-- major_start -->
<g id="node5" class="node">
<title>major_start</title>
<ellipse fill="#d3d3d3" stroke="#000000" cx="160" cy="-246.8" rx="55.0304" ry="18"/>
<text text-anchor="middle" x="160" y="-242.6" font-family="Times,serif" font-size="14.00" fill="#000000">major_start</text>
</g>
<!-- minor_stop&#45;&gt;major_start -->
<g id="edge6" class="edge">
<title>minor_stop&#45;&gt;major_start</title>
<path fill="none" stroke="#000000" d="M160,-300.6314C160,-292.931 160,-283.7743 160,-275.2166"/>
<polygon fill="#000000" stroke="#000000" points="163.5001,-275.2132 160,-265.2133 156.5001,-275.2133 163.5001,-275.2132"/>
</g>
<!-- major_active -->
<g id="node6" class="node">
<title>major_active</title>
<ellipse fill="#d3d3d3" stroke="#000000" cx="160" cy="-162" rx="61.3935" ry="18"/>
<text text-anchor="middle" x="160" y="-157.8" font-family="Times,serif" font-size="14.00" fill="#000000">major_active</text>
</g>
<!-- major_start&#45;&gt;major_active -->
<g id="edge7" class="edge">
<title>major_start&#45;&gt;major_active</title>
<path fill="none" stroke="#000000" d="M160,-228.3997C160,-217.2112 160,-202.6983 160,-190.0954"/>
<polygon fill="#000000" stroke="#000000" points="163.5001,-190.0731 160,-180.0731 156.5001,-190.0731 163.5001,-190.0731"/>
</g>
<!-- major_active&#45;&gt;major_active -->
<g id="edge8" class="edge">
<title>major_active&#45;&gt;major_active</title>
<path fill="none" stroke="#000000" d="M202.0973,-175.2025C221.9829,-176.7368 239.4467,-172.3359 239.4467,-162 239.4467,-153.5213 227.6951,-149.0364 212.495,-148.5453"/>
<polygon fill="#000000" stroke="#000000" points="212.0095,-145.0559 202.0973,-148.7975 212.1793,-152.0539 212.0095,-145.0559"/>
</g>
<!-- major_dominant -->
<g id="node7" class="node">
<title>major_dominant</title>
<ellipse fill="#d3d3d3" stroke="#000000" cx="99" cy="-90" rx="74.7419" ry="18"/>
<text text-anchor="middle" x="99" y="-85.8" font-family="Times,serif" font-size="14.00" fill="#000000">major_dominant</text>
</g>
<!-- major_active&#45;&gt;major_dominant -->
<g id="edge9" class="edge">
<title>major_active&#45;&gt;major_dominant</title>
<path fill="none" stroke="#000000" d="M144.9213,-144.2022C137.5895,-135.5483 128.6443,-124.99 120.6032,-115.4988"/>
<polygon fill="#000000" stroke="#000000" points="123.2513,-113.2099 114.1166,-107.8425 117.9104,-117.7349 123.2513,-113.2099"/>
</g>
<!-- major_inferior -->
<g id="node8" class="node">
<title>major_inferior</title>
<ellipse fill="#d3d3d3" stroke="#000000" cx="259" cy="-90" rx="67.1927" ry="18"/>
<text text-anchor="middle" x="259" y="-85.8" font-family="Times,serif" font-size="14.00" fill="#000000">major_inferior</text>
</g>
<!-- major_active&#45;&gt;major_inferior -->
<g id="edge10" class="edge">
<title>major_active&#45;&gt;major_inferior</title>
<path fill="none" stroke="#000000" d="M182.9614,-145.3008C196.1402,-135.7163 212.8821,-123.5403 227.2998,-113.0547"/>
<polygon fill="#000000" stroke="#000000" points="229.4469,-115.821 235.4756,-107.1086 225.3296,-110.1598 229.4469,-115.821"/>
</g>
<!-- warmboot -->
<g id="node9" class="node">
<title>warmboot</title>
<polygon fill="none" stroke="#000000" points="99,-36 28.0396,-18 99,0 169.9604,-18 99,-36"/>
<polyline fill="none" stroke="#000000" points="39.6712,-20.9505 39.6712,-15.0495 "/>
<polyline fill="none" stroke="#000000" points="87.3684,-2.9505 110.6316,-2.9505 "/>
<polyline fill="none" stroke="#000000" points="158.3288,-15.0495 158.3288,-20.9505 "/>
<polyline fill="none" stroke="#000000" points="110.6316,-33.0495 87.3684,-33.0495 "/>
<text text-anchor="middle" x="99" y="-13.8" font-family="Times,serif" font-size="14.00" fill="#000000">warmboot</text>
</g>
<!-- major_dominant&#45;&gt;warmboot -->
<g id="edge12" class="edge">
<title>major_dominant&#45;&gt;warmboot</title>
<path fill="none" stroke="#000000" d="M99,-71.8314C99,-64.131 99,-54.9743 99,-46.4166"/>
<polygon fill="#000000" stroke="#000000" points="102.5001,-46.4132 99,-36.4133 95.5001,-46.4133 102.5001,-46.4132"/>
</g>
<!-- major_inferior&#45;&gt;minor_start -->
<g id="edge11" class="edge">
<title>major_inferior&#45;&gt;minor_start</title>
<path fill="none" stroke="#000000" d="M259,-108.3463C259,-137.6219 259,-196.7111 259,-246.8 259,-318.8 259,-318.8 259,-318.8 259,-359.0462 270.6519,-374.8743 249,-408.8 239.0027,-424.4644 222.679,-436.257 206.7234,-444.7609"/>
<polygon fill="#000000" stroke="#000000" points="204.8137,-441.8018 197.4221,-449.3923 207.9339,-448.068 204.8137,-441.8018"/>
</g>
</g>
</svg>
