<?xml version="1.0" encoding="UTF-8" standalone="no"?>
<!DOCTYPE svg PUBLIC "-//W3C//DTD SVG 1.1//EN"
 "http://www.w3.org/Graphics/SVG/1.1/DTD/svg11.dtd">
<!-- Generated by graphviz version 2.40.1 (20161225.0304)
 -->
<!-- Title: boot0 Pages: 1 -->
<svg width="230pt" height="526pt"
 viewBox="0.00 0.00 230.00 526.40" xmlns="http://www.w3.org/2000/svg" xmlns:xlink="http://www.w3.org/1999/xlink">
<g id="graph0" class="graph" transform="scale(1 1) rotate(0) translate(4 522.4)">
<title>boot0</title>
<polygon fill="#ffffff" stroke="transparent" points="-4,4 -4,-522.4 226,-522.4 226,4 -4,4"/>
<g id="clust1" class="cluster">
<title>cluster_coldboot_minor</title>
<polygon fill="none" stroke="#000000" points="8,-56 8,-474.4 214,-474.4 214,-56 8,-56"/>
<text text-anchor="middle" x="111" y="-457.8" font-family="Times,serif" font-size="14.00" fill="#000000">coldboot</text>
</g>
<g id="clust2" class="cluster">
<title>cluster_coldboot_minor</title>
<polygon fill="none" stroke="#000000" points="16,-220.8 16,-441.6 194,-441.6 194,-220.8 16,-220.8"/>
<text text-anchor="middle" x="105" y="-425" font-family="Times,serif" font-size="14.00" fill="#000000">minor</text>
</g>
<g id="clust3" class="cluster">
<title>cluster_coldboot</title>
<polygon fill="none" stroke="#000000" points="22,-64 22,-212.8 200,-212.8 200,-64 22,-64"/>
<text text-anchor="middle" x="111" y="-196.2" font-family="Times,serif" font-size="14.00" fill="#000000">major</text>
</g>
<!-- boot -->
<g id="node1" class="node">
<title>boot</title>
<polygon fill="none" stroke="#000000" points="96,-518.4 56.2222,-500.4 96,-482.4 135.7778,-500.4 96,-518.4"/>
<polyline fill="none" stroke="#000000" points="67.155,-505.3472 67.155,-495.4528 "/>
<polyline fill="none" stroke="#000000" points="85.0673,-487.3472 106.9327,-487.3472 "/>
<polyline fill="none" stroke="#000000" points="124.845,-495.4528 124.845,-505.3472 "/>
<polyline fill="none" stroke="#000000" points="106.9327,-513.4528 85.0673,-513.4528 "/>
<text text-anchor="middle" x="96" y="-496.2" font-family="Times,serif" font-size="14.00" fill="#000000">boot</text>
</g>
<!-- minor_start -->
<g id="node2" class="node">
<title>minor_start</title>
<ellipse fill="#d3d3d3" stroke="#000000" cx="96" cy="-390.8" rx="55.614" ry="18"/>
<text text-anchor="middle" x="96" y="-386.6" font-family="Times,serif" font-size="14.00" fill="#000000">minor_start</text>
</g>
<!-- boot&#45;&gt;minor_start -->
<g id="edge9" class="edge">
<title>boot&#45;&gt;minor_start</title>
<path fill="none" stroke="#000000" d="M96,-482.3018C96,-465.0883 96,-438.9333 96,-418.9888"/>
<polygon fill="#000000" stroke="#000000" points="99.5001,-418.9251 96,-408.9251 92.5001,-418.9251 99.5001,-418.9251"/>
</g>
<!-- minor_continue -->
<g id="node3" class="node">
<title>minor_continue</title>
<ellipse fill="#d3d3d3" stroke="#000000" cx="96" cy="-318.8" rx="72.3748" ry="18"/>
<text text-anchor="middle" x="96" y="-314.6" font-family="Times,serif" font-size="14.00" fill="#000000">minor_continue</text>
</g>
<!-- minor_start&#45;&gt;minor_continue -->
<g id="edge1" class="edge">
<title>minor_start&#45;&gt;minor_continue</title>
<path fill="none" stroke="#000000" d="M90.0476,-372.6314C89.2972,-364.931 89.0763,-355.7743 89.3849,-347.2166"/>
<polygon fill="#000000" stroke="#000000" points="92.8792,-347.4161 90.024,-337.2133 85.8935,-346.9697 92.8792,-347.4161"/>
</g>
<!-- minor_continue&#45;&gt;minor_start -->
<g id="edge4" class="edge">
<title>minor_continue&#45;&gt;minor_start</title>
<path fill="none" stroke="#000000" d="M101.976,-337.2133C102.7071,-344.8593 102.9203,-353.9084 102.6155,-362.3726"/>
<polygon fill="#000000" stroke="#000000" points="99.1048,-362.4264 101.9524,-372.6314 106.0902,-362.878 99.1048,-362.4264"/>
</g>
<!-- minor_continue&#45;&gt;minor_continue -->
<g id="edge2" class="edge">
<title>minor_continue&#45;&gt;minor_continue</title>
<path fill="none" stroke="#000000" d="M145.167,-332.0891C167.1633,-333.3547 186.1872,-328.925 186.1872,-318.8 186.1872,-310.257 172.6438,-305.7686 155.1988,-305.3348"/>
<polygon fill="#000000" stroke="#000000" points="155.104,-301.8358 145.167,-305.5109 155.2269,-308.8348 155.104,-301.8358"/>
</g>
<!-- minor_stop -->
<g id="node4" class="node">
<title>minor_stop</title>
<ellipse fill="#d3d3d3" stroke="#000000" cx="97" cy="-246.8" rx="55.0575" ry="18"/>
<text text-anchor="middle" x="97" y="-242.6" font-family="Times,serif" font-size="14.00" fill="#000000">minor_stop</text>
</g>
<!-- minor_continue&#45;&gt;minor_stop -->
<g id="edge3" class="edge">
<title>minor_continue&#45;&gt;minor_stop</title>
<path fill="none" stroke="#000000" d="M96.2523,-300.6314C96.3593,-292.931 96.4865,-283.7743 96.6053,-275.2166"/>
<polygon fill="#000000" stroke="#000000" points="100.1049,-275.2609 96.7443,-265.2133 93.1056,-275.1637 100.1049,-275.2609"/>
</g>
<!-- major_start -->
<g id="node5" class="node">
<title>major_start</title>
<ellipse fill="#d3d3d3" stroke="#000000" cx="99" cy="-162" rx="55.0304" ry="18"/>
<text text-anchor="middle" x="99" y="-157.8" font-family="Times,serif" font-size="14.00" fill="#000000">major_start</text>
</g>
<!-- minor_stop&#45;&gt;major_start -->
<g id="edge8" class="edge">
<title>minor_stop&#45;&gt;major_start</title>
<path fill="none" stroke="#000000" d="M97.434,-228.3997C97.6978,-217.2112 98.0401,-202.6983 98.3374,-190.0954"/>
<polygon fill="#000000" stroke="#000000" points="101.8369,-190.1529 98.5737,-180.0731 94.8388,-189.9878 101.8369,-190.1529"/>
</g>
<!-- major_continue -->
<g id="node6" class="node">
<title>major_continue</title>
<ellipse fill="#d3d3d3" stroke="#000000" cx="102" cy="-90" rx="71.7911" ry="18"/>
<text text-anchor="middle" x="102" y="-85.8" font-family="Times,serif" font-size="14.00" fill="#000000">major_continue</text>
</g>
<!-- major_start&#45;&gt;major_continue -->
<g id="edge5" class="edge">
<title>major_start&#45;&gt;major_continue</title>
<path fill="none" stroke="#000000" d="M99.757,-143.8314C100.0779,-136.131 100.4594,-126.9743 100.816,-118.4166"/>
<polygon fill="#000000" stroke="#000000" points="104.3133,-118.5503 101.2328,-108.4133 97.3194,-118.2589 104.3133,-118.5503"/>
</g>
<!-- major_continue&#45;&gt;minor_start -->
<g id="edge7" class="edge">
<title>major_continue&#45;&gt;minor_start</title>
<path fill="none" stroke="#000000" d="M127.8587,-106.8489C140.345,-116.306 154.4407,-129.1803 163,-144 229.6121,-259.334 220.3025,-294.1768 195,-336.8 184.4414,-354.5864 165.7362,-366.8892 147.407,-375.2052"/>
<polygon fill="#000000" stroke="#000000" points="146.0483,-371.9797 138.1901,-379.086 148.7647,-378.4311 146.0483,-371.9797"/>
</g>
<!-- major_continue&#45;&gt;major_continue -->
<g id="edge6" class="edge">
<title>major_continue&#45;&gt;major_continue</title>
<path fill="none" stroke="#000000" d="M150.8716,-103.2891C172.7358,-104.5547 191.6454,-100.125 191.6454,-90 191.6454,-81.5361 178.4316,-77.0521 161.3239,-76.5479"/>
<polygon fill="#000000" stroke="#000000" points="160.8158,-73.0553 150.8716,-76.7109 160.925,-80.0545 160.8158,-73.0553"/>
</g>
<!-- inferior -->
<g id="node7" class="node">
<title>inferior</title>
<ellipse fill="none" stroke="#000000" cx="49" cy="-18" rx="39.9838" ry="18"/>
<text text-anchor="middle" x="49" y="-13.8" font-family="Times,serif" font-size="14.00" fill="#000000">inferior</text>
</g>
<!-- major_continue&#45;&gt;inferior -->
<g id="edge10" class="edge">
<title>major_continue&#45;&gt;inferior</title>
<path fill="none" stroke="#000000" d="M88.8989,-72.2022C82.5152,-63.5301 74.7238,-52.9455 67.7259,-43.4389"/>
<polygon fill="#000000" stroke="#000000" points="70.3324,-41.0757 61.5855,-35.0972 64.695,-45.2255 70.3324,-41.0757"/>
</g>
<!-- dominant -->
<g id="node8" class="node">
<title>dominant</title>
<ellipse fill="none" stroke="#000000" cx="155" cy="-18" rx="47.5332" ry="18"/>
<text text-anchor="middle" x="155" y="-13.8" font-family="Times,serif" font-size="14.00" fill="#000000">dominant</text>
</g>
<!-- major_continue&#45;&gt;dominant -->
<g id="edge11" class="edge">
<title>major_continue&#45;&gt;dominant</title>
<path fill="none" stroke="#000000" d="M115.1011,-72.2022C121.4379,-63.5938 129.1617,-53.1011 136.1196,-43.6488"/>
<polygon fill="#000000" stroke="#000000" points="139.1229,-45.4728 142.2325,-35.3446 133.4856,-41.3231 139.1229,-45.4728"/>
</g>
</g>
</svg>
