<?xml version="1.0" encoding="UTF-8" standalone="no"?>
<!DOCTYPE svg PUBLIC "-//W3C//DTD SVG 1.1//EN"
 "http://www.w3.org/Graphics/SVG/1.1/DTD/svg11.dtd">
<!-- Generated by graphviz version 2.40.1 (20161225.0304)
 -->
<!-- Title: boot1 Pages: 1 -->
<svg width="314pt" height="537pt"
 viewBox="0.00 0.00 313.96 536.64" xmlns="http://www.w3.org/2000/svg" xmlns:xlink="http://www.w3.org/1999/xlink">
<g id="graph0" class="graph" transform="scale(1 1) rotate(0) translate(4 532.6359)">
<title>boot1</title>
<polygon fill="#ffffff" stroke="transparent" points="-4,4 -4,-532.6359 309.959,-532.6359 309.959,4 -4,4"/>
<g id="clust1" class="cluster">
<title>cluster_warmboot</title>
<polygon fill="none" stroke="#000000" points="8,-8 8,-428.7179 204,-428.7179 204,-8 8,-8"/>
<text text-anchor="middle" x="106" y="-412.1179" font-family="Times,serif" font-size="14.00" fill="#000000">warmboot</text>
</g>
<!-- coldboot_minor -->
<g id="node1" class="node">
<title>coldboot_minor</title>
<ellipse fill="none" stroke="#000000" stroke-dasharray="5,2" cx="114" cy="-482.6769" rx="45.918" ry="45.918"/>
<text text-anchor="middle" x="114" y="-486.8769" font-family="Times,serif" font-size="14.00" fill="#000000">coldboot</text>
<text text-anchor="middle" x="114" y="-470.0769" font-family="Times,serif" font-size="14.00" fill="#000000">minor</text>
</g>
<!-- warm_start -->
<g id="node3" class="node">
<title>warm_start</title>
<ellipse fill="none" stroke="#000000" cx="114" cy="-377.9179" rx="54.4488" ry="18"/>
<text text-anchor="middle" x="114" y="-373.7179" font-family="Times,serif" font-size="14.00" fill="#000000">warm_start</text>
</g>
<!-- coldboot_minor&#45;&gt;warm_start -->
<g id="edge1" class="edge">
<title>coldboot_minor&#45;&gt;warm_start</title>
<path fill="none" stroke="#000000" d="M114,-436.4232C114,-426.1803 114,-415.6205 114,-406.3398"/>
<polygon fill="#000000" stroke="#000000" points="117.5001,-406.1281 114,-396.1282 110.5001,-406.1282 117.5001,-406.1281"/>
</g>
<!-- coldboot_major -->
<g id="node2" class="node">
<title>coldboot_major</title>
<ellipse fill="none" stroke="#000000" stroke-dasharray="5,2" cx="260" cy="-133.959" rx="45.918" ry="45.918"/>
<text text-anchor="middle" x="260" y="-138.159" font-family="Times,serif" font-size="14.00" fill="#000000">coldboot</text>
<text text-anchor="middle" x="260" y="-121.359" font-family="Times,serif" font-size="14.00" fill="#000000">major</text>
</g>
<!-- warm_idle -->
<g id="node4" class="node">
<title>warm_idle</title>
<ellipse fill="none" stroke="#000000" cx="144" cy="-34" rx="52.1655" ry="18"/>
<text text-anchor="middle" x="144" y="-29.8" font-family="Times,serif" font-size="14.00" fill="#000000">warm_idle</text>
</g>
<!-- coldboot_major&#45;&gt;warm_idle -->
<g id="edge2" class="edge">
<title>coldboot_major&#45;&gt;warm_idle</title>
<path fill="none" stroke="#000000" d="M225.4131,-103.193C219.6188,-98.0956 213.6536,-92.8824 208,-88 196.2244,-77.8307 183.1091,-66.7264 171.8323,-57.2461"/>
<polygon fill="#000000" stroke="#000000" points="173.9016,-54.4135 163.9914,-50.6667 169.4019,-59.7758 173.9016,-54.4135"/>
</g>
<!-- warm_continue -->
<g id="node5" class="node">
<title>warm_continue</title>
<ellipse fill="none" stroke="#000000" cx="87" cy="-305.9179" rx="71.2094" ry="18"/>
<text text-anchor="middle" x="87" y="-301.7179" font-family="Times,serif" font-size="14.00" fill="#000000">warm_continue</text>
</g>
<!-- warm_start&#45;&gt;warm_continue -->
<g id="edge4" class="edge">
<title>warm_start&#45;&gt;warm_continue</title>
<path fill="none" stroke="#000000" d="M107.1868,-359.7493C104.2356,-351.8797 100.7142,-342.4891 97.445,-333.7712"/>
<polygon fill="#000000" stroke="#000000" points="100.6934,-332.4656 93.905,-324.3312 94.1391,-334.9235 100.6934,-332.4656"/>
</g>
<!-- warm_idle&#45;&gt;warm_start -->
<g id="edge3" class="edge">
<title>warm_idle&#45;&gt;warm_start</title>
<path fill="none" stroke="#000000" d="M155.1229,-51.7772C160.9232,-61.9799 167.5183,-75.2604 171,-88 248.6308,-372.0541 202.4991,-288.6235 185,-323.9179 178.1811,-337.6713 165.9978,-348.87 153.6268,-357.4304"/>
<polygon fill="#000000" stroke="#000000" points="151.6014,-354.5719 145.0959,-362.9344 155.3963,-360.454 151.6014,-354.5719"/>
</g>
<!-- warm_continue&#45;&gt;warm_continue -->
<g id="edge5" class="edge">
<title>warm_continue&#45;&gt;warm_continue</title>
<path fill="none" stroke="#000000" d="M136.4806,-318.8859C157.8276,-319.9476 176.1046,-315.625 176.1046,-305.9179 176.1046,-297.8035 163.3328,-293.4516 146.6723,-292.8622"/>
<polygon fill="#000000" stroke="#000000" points="146.45,-289.3639 136.4806,-292.95 146.5104,-296.3636 146.45,-289.3639"/>
</g>
<!-- warm_stop -->
<g id="node6" class="node">
<title>warm_stop</title>
<ellipse fill="none" stroke="#000000" cx="94" cy="-233.9179" rx="53.8924" ry="18"/>
<text text-anchor="middle" x="94" y="-229.7179" font-family="Times,serif" font-size="14.00" fill="#000000">warm_stop</text>
</g>
<!-- warm_continue&#45;&gt;warm_stop -->
<g id="edge6" class="edge">
<title>warm_continue&#45;&gt;warm_stop</title>
<path fill="none" stroke="#000000" d="M88.7664,-287.7493C89.515,-280.0489 90.4053,-270.8923 91.2373,-262.3346"/>
<polygon fill="#000000" stroke="#000000" points="94.7256,-262.623 92.2098,-252.3312 87.7585,-261.9456 94.7256,-262.623"/>
</g>
<!-- warm_finish -->
<g id="node7" class="node">
<title>warm_finish</title>
<ellipse fill="none" stroke="#000000" cx="102" cy="-133.959" rx="59.6897" ry="18"/>
<text text-anchor="middle" x="102" y="-129.759" font-family="Times,serif" font-size="14.00" fill="#000000">warm_finish</text>
</g>
<!-- warm_stop&#45;&gt;warm_finish -->
<g id="edge7" class="edge">
<title>warm_stop&#45;&gt;warm_finish</title>
<path fill="none" stroke="#000000" d="M95.4673,-215.5839C96.6627,-200.648 98.3707,-179.3068 99.7404,-162.192"/>
<polygon fill="#000000" stroke="#000000" points="103.233,-162.4241 100.542,-152.1768 96.2553,-161.8656 103.233,-162.4241"/>
</g>
<!-- warm_finish&#45;&gt;warm_idle -->
<g id="edge8" class="edge">
<title>warm_finish&#45;&gt;warm_idle</title>
<path fill="none" stroke="#000000" d="M109.5088,-116.0883C115.8599,-100.9728 125.0661,-79.0623 132.37,-61.6791"/>
<polygon fill="#000000" stroke="#000000" points="135.7676,-62.628 136.4146,-52.053 129.3142,-59.9164 135.7676,-62.628"/>
</g>
</g>
</svg>
